{"title":"Geordie Shore Complete Season 2 (2012) WEB-DL","uid":11727177,"size":3975317854,"categoryP":"video","categoryS":"tv_shows","magnet":"?xt=urn:btih:117c93b6e8517d35e54e8247678b99b45f96294a&amp;dn=Geordie+Shore+Complete+Season+2+%282012%29+WEB-DL&amp;tr=udp%3A%2F%2Ftracker.openbittorrent.com%3A80&amp;tr=udp%3A%2F%2Fopen.demonii.com%3A1337&amp;tr=udp%3A%2F%2Ftracker.coppersurfer.tk%3A6969&amp;tr=udp%3A%2F%2Fexodus.desync.com%3A6969","seeders":24,"leechers":13,"uploader":"jmanwf","files":16,"time":1425119325,"description":"Description\nThey may be back in Newcastle, but it's all change for Geordie Shore; Greg has left to find true love, Vicky and Sophie have pledged chastity to their new boyfriends, Gary promises Charlotte's Mum that he won't, Charlotte promises to do the ironing for a year if she does and James is nurturing a worldie-magnet comb-over. But with two new housemates ready to join the family, peace isn't set to last.\n\n\n\nVideo\nID : 2\nFormat : AVC\nFormat/Info : Advanced Video Codec\nFormat profile : &lt;a class=&quot;__cf_email__&quot; href=&quot;/cdn-cgi/l/email-protection&quot; data-cfemail=&quot;5b13323c331b176f756b&quot;&gt;[email&amp;#160;protected]&lt;/a&gt;&lt;script cf-hash='f9e31' type=&quot;text/javascript&quot;&gt;\n/* &lt;![CDATA[ */!function(){try{var t=&quot;currentScript&quot;in document?document.currentScript:function(){for(var t=document.getElementsByTagName(&quot;script&quot;),e=t.length;e--;)if(t[e].getAttribute(&quot;cf-hash&quot;))return t[e]}();if(t&amp;&amp;t.previousSibling){var e,r,n,i,c=t.previousSibling,a=c.getAttribute(&quot;data-cfemail&quot;);if(a){for(e=&quot;&quot;,r=parseInt(a.substr(0,2),16),n=2;a.length-n;n+=2)i=parseInt(a.substr(n,2),16)^r,e+=String.fromCharCode(i);e=document.createTextNode(e),c.parentNode.replaceChild(e,c)}}}catch(u){}}();/* ]]&gt; */&lt;/script&gt;\nFormat settings, CABAC : Yes\nFormat settings, ReFrames : 4 frames\nCodec ID : avc1\nCodec ID/Info : Advanced Video Coding\nDuration : 42mn 25s\nBit rate : 4 544 Kbps\nWidth : 1 920 pixels\nHeight : 1 080 pixels\nDisplay aspect ratio : 16:9\nFrame rate mode : Constant\nFrame rate : 25.000 fps\nColor space : YUV\nChroma subsampling : 4:2:0\nBit depth : 8 bits\nScan type : Progressive\nBits/(Pixel*Frame) : 0.088\nStream size : 1.35 GiB (98%)\nLanguage : English\nEncoded date : UTC 2015-02-19 04:21:47\nTagged date : UTC 2015-02-19 04:24:22\nColor primaries : BT.709\nTransfer characteristics : BT.709\nMatrix coefficients : BT.709\nColor range : Limited\n\nAudio\nID : 1\nFormat : AAC\nFormat/Info : Advanced Audio Codec\nFormat profile : LC\nCodec ID : 40\nDuration : 42mn 25s\nBit rate mode : Variable\nBit rate : 112 Kbps\nMaximum bit rate : 123 Kbps\nChannel(s) : 2 channels\nChannel positions : Front: L R\nSampling rate : 48.0 KHz\nCompression mode : Lossy\nStream size : 34.0 MiB (2%)\nLanguage : English\nEncoded date : UTC 2015-02-19 04:21:47\nTagged date : UTC 2015-02-19 04:24:22\n\nText\nID : 3-CC1\nFormat : EIA-608\nMuxing mode : Final Cut\nCodec ID : c608\nDuration : 41mn 58s\nBit rate mode : Constant\nStream size : 0.00 Byte (0%)\nLanguage : English\nEncoded date : UTC 2015-02-19 04:21:47\nTagged date : UTC 2015-02-19 04:22:24\n\n\n\nALL In MP4\n\n\n\nALL Have English Subtitles","torrent":{"xt":"urn:btih:117c93b6e8517d35e54e8247678b99b45f96294a","amp;dn":"Geordie+Shore+Complete+Season+2+%282012%29+WEB-DL","amp;tr":["udp%3A%2F%2Ftracker.openbittorrent.com%3A80","udp%3A%2F%2Fopen.demonii.com%3A1337","udp%3A%2F%2Ftracker.coppersurfer.tk%3A6969","udp%3A%2F%2Fexodus.desync.com%3A6969"],"infoHash":"117c93b6e8517d35e54e8247678b99b45f96294a","infoHashBuffer":{"type":"Buffer","data":[17,124,147,182,232,81,125,53,229,78,130,71,103,139,153,180,95,150,41,74]},"announce":[],"urlList":[]}}